<?xml version="1.0" encoding="UTF-8" standalone="no"?>
<!-- Uploaded to: SVG Repo, www.svgrepo.com, Generator: SVG Repo Mixer Tools -->

<svg
   fill="#000000"
   height="800px"
   width="800px"
   version="1.1"
   id="Layer_1"
   viewBox="0 0 512 512"
   xml:space="preserve"
   sodipodi:docname="archives-folder-svgrepo-com.svg"
   inkscape:version="1.1.2 (0a00cf5339, 2022-02-04)"
   xmlns:inkscape="http://www.inkscape.org/namespaces/inkscape"
   xmlns:sodipodi="http://sodipodi.sourceforge.net/DTD/sodipodi-0.dtd"
   xmlns="http://www.w3.org/2000/svg"
   xmlns:svg="http://www.w3.org/2000/svg"><defs
   id="defs23" /><sodipodi:namedview
   id="namedview21"
   pagecolor="#ffffff"
   bordercolor="#666666"
   borderopacity="1.0"
   inkscape:pageshadow="2"
   inkscape:pageopacity="0.0"
   inkscape:pagecheckerboard="0"
   showgrid="false"
   inkscape:zoom="0.9775"
   inkscape:cx="400"
   inkscape:cy="399.48849"
   inkscape:window-width="1920"
   inkscape:window-height="1016"
   inkscape:window-x="0"
   inkscape:window-y="0"
   inkscape:window-maximized="1"
   inkscape:current-layer="Layer_1" />
<g
   id="g6"
   style="fill:#58748f;fill-opacity:1">
	<g
   id="g4"
   style="fill:#58748f;fill-opacity:1">
		<path
   d="M128.279,10.039H16.732C7.492,10.039,0,17.531,0,26.771v458.458c0,9.241,7.492,16.732,16.732,16.732h111.547    c9.241,0,16.732-7.491,16.732-16.732V26.771C145.011,17.531,137.519,10.039,128.279,10.039z M72.505,440.94    c-16.816,0-30.448-13.632-30.448-30.448s13.632-30.448,30.448-30.448s30.448,13.632,30.448,30.448    C102.953,427.308,89.321,440.94,72.505,440.94z M128.279,172.898c0,4.62-3.746,8.366-8.366,8.366H25.098    c-4.62,0-8.366-3.746-8.366-8.366v-32.349c0-4.62,3.746-8.366,8.366-8.366h94.815c4.62,0,8.366,3.746,8.366,8.366V172.898z     M128.279,99.277c0,4.62-3.746,8.366-8.366,8.366H25.098c-4.62,0-8.366-3.746-8.366-8.366V66.928c0-4.62,3.746-8.366,8.366-8.366    h94.815c4.62,0,8.366,3.746,8.366,8.366V99.277z"
   id="path2"
   style="fill:#58748f;fill-opacity:1" />
	</g>
</g>
<g
   id="g12"
   style="fill:#ff6100;fill-opacity:1">
	<g
   id="g10"
   style="fill:#ff6100;fill-opacity:1">
		<path
   d="M311.773,10.039H200.227c-9.241,0-16.732,7.491-16.732,16.732v458.458c0,9.241,7.491,16.732,16.732,16.732h111.547    c9.241,0,16.732-7.491,16.732-16.732V26.771C328.505,17.531,321.014,10.039,311.773,10.039z M256,440.94    c-16.816,0-30.448-13.632-30.448-30.448s13.632-30.448,30.448-30.448c16.816,0,30.448,13.632,30.448,30.448    S272.816,440.94,256,440.94z M311.773,246.519c0,4.62-3.746,8.366-8.366,8.366h-94.815c-4.62,0-8.366-3.746-8.366-8.366V214.17    c0-4.62,3.746-8.366,8.366-8.366h94.815c4.62,0,8.366,3.746,8.366,8.366V246.519z M311.773,172.898    c0,4.62-3.746,8.366-8.366,8.366h-94.815c-4.62,0-8.366-3.746-8.366-8.366v-32.349c0-4.62,3.746-8.366,8.366-8.366h94.815    c4.62,0,8.366,3.746,8.366,8.366V172.898z M311.773,99.277c0,4.62-3.746,8.366-8.366,8.366h-94.815    c-4.62,0-8.366-3.746-8.366-8.366V66.928c0-4.62,3.746-8.366,8.366-8.366h94.815c4.62,0,8.366,3.746,8.366,8.366V99.277z"
   id="path8"
   style="fill:#ff6100;fill-opacity:1" />
	</g>
</g>
<g
   id="g18"
   style="fill:#58748f;fill-opacity:1">
	<g
   id="g16"
   style="fill:#58748f;fill-opacity:1">
		<path
   d="M495.268,10.039H383.721c-9.241,0-16.732,7.491-16.732,16.732v458.458c0,9.241,7.492,16.732,16.732,16.732h111.547    c9.241,0,16.732-7.491,16.732-16.732V26.771C512,17.531,504.508,10.039,495.268,10.039z M439.495,440.94    c-16.816,0-30.448-13.632-30.448-30.448s13.632-30.448,30.448-30.448c16.816,0,30.448,13.632,30.448,30.448    S456.31,440.94,439.495,440.94z M495.268,242.057c0,4.62-3.746,8.366-8.366,8.366h-94.815c-4.62,0-8.366-3.746-8.366-8.366    v-32.349c0-4.62,3.746-8.366,8.366-8.366h94.815c4.62,0,8.366,3.746,8.366,8.366V242.057z M495.268,168.436    c0,4.62-3.746,8.366-8.366,8.366h-94.815c-4.62,0-8.366-3.746-8.366-8.366v-32.349c0-4.62,3.746-8.366,8.366-8.366h94.815    c4.62,0,8.366,3.746,8.366,8.366V168.436z M495.268,94.815c0,4.62-3.746,8.366-8.366,8.366h-94.815    c-4.62,0-8.366-3.746-8.366-8.366V62.466c0-4.62,3.746-8.366,8.366-8.366h94.815c4.62,0,8.366,3.746,8.366,8.366V94.815z"
   id="path14"
   style="fill:#58748f;fill-opacity:1" />
	</g>
</g>
</svg>
