<?xml version="1.0" encoding="UTF-8" standalone="no"?>
<!-- Uploaded to: SVG Repo, www.svgrepo.com, Generator: SVG Repo Mixer Tools -->

<svg
   fill="#000000"
   width="800px"
   height="800px"
   viewBox="0 0 64 64"
   data-name="Layer 1"
   id="Layer_1"
   version="1.1"
   sodipodi:docname="click-data-facts-svgrepo-com.svg"
   inkscape:version="1.1.2 (0a00cf5339, 2022-02-04)"
   xmlns:inkscape="http://www.inkscape.org/namespaces/inkscape"
   xmlns:sodipodi="http://sodipodi.sourceforge.net/DTD/sodipodi-0.dtd"
   xmlns="http://www.w3.org/2000/svg"
   xmlns:svg="http://www.w3.org/2000/svg">
  <defs
     id="defs23" />
  <sodipodi:namedview
     id="namedview21"
     pagecolor="#ffffff"
     bordercolor="#666666"
     borderopacity="1.0"
     inkscape:pageshadow="2"
     inkscape:pageopacity="0.0"
     inkscape:pagecheckerboard="0"
     showgrid="false"
     inkscape:zoom="1.6325"
     inkscape:cx="400"
     inkscape:cy="399.69372"
     inkscape:window-width="1920"
     inkscape:window-height="1016"
     inkscape:window-x="0"
     inkscape:window-y="0"
     inkscape:window-maximized="1"
     inkscape:current-layer="Layer_1" />
  <title
     id="title2" />
  <rect
     height="6"
     width="20"
     x="3"
     y="56"
     id="rect4"
     style="fill:#ff6100;fill-opacity:1" />
  <path
     d="M35,28H62V2H35Zm9-11a4.993,4.993,0,0,1,3.16571-4.64185,3,3,0,1,1,3.66858,0A4.993,4.993,0,0,1,54,17v7H44Z"
     id="path6"
     style="fill:#58748f;fill-opacity:1" />
  <path
     d="M35,62H62V36H35Zm14-5a7.99015,7.99015,0,0,1-6.61346-3.5H55.61346A7.99015,7.99015,0,0,1,49,57Zm0-16a7.99015,7.99015,0,0,1,6.61346,3.5H42.38654A7.99015,7.99015,0,0,1,49,41Zm-7.18536,4.5H56.18536a7.94134,7.94134,0,0,1,.78937,3H41.02527A7.94134,7.94134,0,0,1,41.81464,45.5Zm15.16009,4a7.94134,7.94134,0,0,1-.78937,3H41.81464a7.94134,7.94134,0,0,1-.78937-3Z"
     id="path8"
     style="fill:#58748f;fill-opacity:1" />
  <path
     d="M22.97766,55l.03424-.01141,9.93225-7.44715a2.56956,2.56956,0,0,0,.3783-3.76361,2.67711,2.67711,0,0,0-3.47083-.34564L23,48V23.5a2.5,2.5,0,0,0-5,0V33.87628a.03854.03854,0,0,1-.07666.007,2.50094,2.50094,0,0,0-2.618-1.87585A2.62119,2.62119,0,0,0,13,34.67743v.93683h.27063v6h-.75v-6h.30646a2.49219,2.49219,0,0,0-2.55072-1.60456A2.62151,2.62151,0,0,0,8,36.67731V38.1795h.30432v5h-.75v-5h.41162a2.491,2.491,0,0,0-2.68957-2.1698A2.62151,2.62151,0,0,0,3,38.67731v16.2818A.04089.04089,0,0,0,3.04089,55ZM17.46844,33.94781h.75v5h-.75Z"
     id="path10"
     style="fill:#ff6100;fill-opacity:1" />
  <polygon
     points="17.5 24 9 24 9 6 24 6 24 24 23.5 24 23.5 28 30 28 30 2 3 2 3 28 17.5 28 17.5 24"
     id="polygon12"
     style="fill:#58748f;fill-opacity:1" />
  <rect
     height="2"
     width="9"
     x="12"
     y="10"
     id="rect14"
     style="fill:#58748f;fill-opacity:1" />
  <rect
     height="2"
     width="9"
     x="12"
     y="14"
     id="rect16"
     style="fill:#58748f;fill-opacity:1" />
  <rect
     height="2"
     width="6"
     x="12"
     y="18"
     id="rect18"
     style="fill:#58748f;fill-opacity:1" />
</svg>
